<svg xmlns="http://www.w3.org/2000/svg" width="940" height="466" viewBox="0 0 940 466" font-family="system-ui,-apple-system,Segoe UI,sans-serif"><rect width="940" height="466" fill="#0d0d0d"/><text x="28" y="34" fill="#f2f1ec" font-size="19" font-weight="700">PM-sim benchmark — model separation</text><text x="28.0" y="52.0" fill="#a5a39b" font-size="12.5" text-anchor="start" font-weight="400">Benchmark — normalized score per model  (3 rollouts each · dot = run · │ = mean)</text><line x1="269.5" y1="58.0" x2="269.5" y2="436.0" stroke="#a5a39b" stroke-width="1" stroke-dasharray="3 3"/><text x="269.5" y="452.0" fill="#a5a39b" font-size="11" text-anchor="middle" font-weight="400">baseline = 0</text><line x1="703.7" y1="58.0" x2="703.7" y2="436.0" stroke="#a5a39b" stroke-width="1" stroke-dasharray="3 3"/><text x="703.7" y="452.0" fill="#a5a39b" font-size="11" text-anchor="middle" font-weight="400">OPT = 1</text><text x="28.0" y="82.0" fill="#f2f1ec" font-size="13" text-anchor="start" font-weight="700">CRUNCH</text><text x="198.0" y="90.0" fill="#eda100" font-size="12.5" text-anchor="end" font-weight="600">haiku</text><line x1="210.0" y1="86.0" x2="880.0" y2="86.0" stroke="rgba(255,255,255,.14)" stroke-width="1"/><circle cx="231.7" cy="86.0" r="4.5" fill="#eda100" fill-opacity="0.85"/><circle cx="451.0" cy="86.0" r="4.5" fill="#eda100" fill-opacity="0.85"/><circle cx="434.9" cy="86.0" r="4.5" fill="#eda100" fill-opacity="0.85"/><line x1="372.5" y1="75.0" x2="372.5" y2="97.0" stroke="#eda100" stroke-width="2.5"/><text x="888.0" y="90.0" fill="#a5a39b" font-size="11" text-anchor="start" font-weight="400">mean 0.24  (-0.09–0.42)</text><text x="198.0" y="130.0" fill="#2fd39a" font-size="12.5" text-anchor="end" font-weight="600">sonnet</text><line x1="210.0" y1="126.0" x2="880.0" y2="126.0" stroke="rgba(255,255,255,.14)" stroke-width="1"/><circle cx="816.2" cy="126.0" r="4.5" fill="#2fd39a" fill-opacity="0.85"/><circle cx="527.8" cy="126.0" r="4.5" fill="#2fd39a" fill-opacity="0.85"/><circle cx="836.6" cy="126.0" r="4.5" fill="#2fd39a" fill-opacity="0.85"/><line x1="726.9" y1="115.0" x2="726.9" y2="137.0" stroke="#2fd39a" stroke-width="2.5"/><text x="888.0" y="130.0" fill="#a5a39b" font-size="11" text-anchor="start" font-weight="400">mean 1.05  (0.59–1.31)</text><text x="198.0" y="170.0" fill="#9085e9" font-size="12.5" text-anchor="end" font-weight="600">opus</text><line x1="210.0" y1="166.0" x2="880.0" y2="166.0" stroke="rgba(255,255,255,.14)" stroke-width="1"/><circle cx="547.0" cy="166.0" r="4.5" fill="#9085e9" fill-opacity="0.85"/><circle cx="679.4" cy="166.0" r="4.5" fill="#9085e9" fill-opacity="0.85"/><circle cx="338.1" cy="166.0" r="4.5" fill="#9085e9" fill-opacity="0.85"/><line x1="521.5" y1="155.0" x2="521.5" y2="177.0" stroke="#9085e9" stroke-width="2.5"/><text x="888.0" y="170.0" fill="#a5a39b" font-size="11" text-anchor="start" font-weight="400">mean 0.58  (0.16–0.94)</text><text x="28.0" y="202.0" fill="#f2f1ec" font-size="13" text-anchor="start" font-weight="700">MOBILE</text><text x="198.0" y="210.0" fill="#eda100" font-size="12.5" text-anchor="end" font-weight="600">haiku</text><line x1="210.0" y1="206.0" x2="880.0" y2="206.0" stroke="rgba(255,255,255,.14)" stroke-width="1"/><circle cx="598.6" cy="206.0" r="4.5" fill="#eda100" fill-opacity="0.85"/><circle cx="706.3" cy="206.0" r="4.5" fill="#eda100" fill-opacity="0.85"/><circle cx="574.3" cy="206.0" r="4.5" fill="#eda100" fill-opacity="0.85"/><line x1="626.4" y1="195.0" x2="626.4" y2="217.0" stroke="#eda100" stroke-width="2.5"/><text x="888.0" y="210.0" fill="#a5a39b" font-size="11" text-anchor="start" font-weight="400">mean 0.82  (0.70–1.01)</text><text x="198.0" y="250.0" fill="#2fd39a" font-size="12.5" text-anchor="end" font-weight="600">sonnet</text><line x1="210.0" y1="246.0" x2="880.0" y2="246.0" stroke="rgba(255,255,255,.14)" stroke-width="1"/><circle cx="683.7" cy="246.0" r="4.5" fill="#2fd39a" fill-opacity="0.85"/><circle cx="643.8" cy="246.0" r="4.5" fill="#2fd39a" fill-opacity="0.85"/><circle cx="643.8" cy="246.0" r="4.5" fill="#2fd39a" fill-opacity="0.85"/><line x1="657.1" y1="235.0" x2="657.1" y2="257.0" stroke="#2fd39a" stroke-width="2.5"/><text x="888.0" y="250.0" fill="#a5a39b" font-size="11" text-anchor="start" font-weight="400">mean 0.89  (0.86–0.95)</text><text x="198.0" y="290.0" fill="#9085e9" font-size="12.5" text-anchor="end" font-weight="600">opus</text><line x1="210.0" y1="286.0" x2="880.0" y2="286.0" stroke="rgba(255,255,255,.14)" stroke-width="1"/><circle cx="690.7" cy="286.0" r="4.5" fill="#9085e9" fill-opacity="0.85"/><circle cx="688.9" cy="286.0" r="4.5" fill="#9085e9" fill-opacity="0.85"/><circle cx="685.5" cy="286.0" r="4.5" fill="#9085e9" fill-opacity="0.85"/><line x1="688.4" y1="275.0" x2="688.4" y2="297.0" stroke="#9085e9" stroke-width="2.5"/><text x="888.0" y="290.0" fill="#a5a39b" font-size="11" text-anchor="start" font-weight="400">mean 0.96  (0.96–0.97)</text><text x="28.0" y="322.0" fill="#f2f1ec" font-size="13" text-anchor="start" font-weight="700">BIGWEEK</text><text x="198.0" y="330.0" fill="#eda100" font-size="12.5" text-anchor="end" font-weight="600">haiku</text><line x1="210.0" y1="326.0" x2="880.0" y2="326.0" stroke="rgba(255,255,255,.14)" stroke-width="1"/><circle cx="532.2" cy="326.0" r="4.5" fill="#eda100" fill-opacity="0.85"/><circle cx="586.9" cy="326.0" r="4.5" fill="#eda100" fill-opacity="0.85"/><circle cx="480.1" cy="326.0" r="4.5" fill="#eda100" fill-opacity="0.85"/><line x1="533.1" y1="315.0" x2="533.1" y2="337.0" stroke="#eda100" stroke-width="2.5"/><text x="888.0" y="330.0" fill="#a5a39b" font-size="11" text-anchor="start" font-weight="400">mean 0.61  (0.48–0.73)</text><text x="198.0" y="370.0" fill="#2fd39a" font-size="12.5" text-anchor="end" font-weight="600">sonnet</text><line x1="210.0" y1="366.0" x2="880.0" y2="366.0" stroke="rgba(255,255,255,.14)" stroke-width="1"/><circle cx="698.1" cy="366.0" r="4.5" fill="#2fd39a" fill-opacity="0.85"/><circle cx="598.6" cy="366.0" r="4.5" fill="#2fd39a" fill-opacity="0.85"/><circle cx="644.2" cy="366.0" r="4.5" fill="#2fd39a" fill-opacity="0.85"/><line x1="647.0" y1="355.0" x2="647.0" y2="377.0" stroke="#2fd39a" stroke-width="2.5"/><text x="888.0" y="370.0" fill="#a5a39b" font-size="11" text-anchor="start" font-weight="400">mean 0.87  (0.76–0.99)</text><text x="198.0" y="410.0" fill="#9085e9" font-size="12.5" text-anchor="end" font-weight="600">opus</text><line x1="210.0" y1="406.0" x2="880.0" y2="406.0" stroke="rgba(255,255,255,.14)" stroke-width="1"/><circle cx="523.1" cy="406.0" r="4.5" fill="#9085e9" fill-opacity="0.85"/><circle cx="655.5" cy="406.0" r="4.5" fill="#9085e9" fill-opacity="0.85"/><circle cx="688.5" cy="406.0" r="4.5" fill="#9085e9" fill-opacity="0.85"/><line x1="622.4" y1="395.0" x2="622.4" y2="417.0" stroke="#9085e9" stroke-width="2.5"/><text x="888.0" y="410.0" fill="#a5a39b" font-size="11" text-anchor="start" font-weight="400">mean 0.81  (0.58–0.96)</text></svg>