<svg xmlns="http://www.w3.org/2000/svg" width="940" height="384" viewBox="0 0 940 384" font-family="system-ui,-apple-system,Segoe UI,sans-serif"><rect width="940" height="384" fill="#0d0d0d"/><text x="28" y="34" fill="#f2f1ec" font-size="19" font-weight="700">PM-sim difficulty bands</text><text x="28.0" y="52.0" fill="#a5a39b" font-size="12.5" text-anchor="start" font-weight="400">Difficulty band per scenario — [no-PM baseline , frictionless OPT] on COMBINED; bar width = winnable</text><line x1="150.0" y1="68.0" x2="150.0" y2="362.0" stroke="rgba(255,255,255,.14)" stroke-width="1"/><text x="150.0" y="376.0" fill="#a5a39b" font-size="10.5" text-anchor="middle" font-weight="400">0</text><line x1="337.5" y1="68.0" x2="337.5" y2="362.0" stroke="rgba(255,255,255,.14)" stroke-width="1"/><text x="337.5" y="376.0" fill="#a5a39b" font-size="10.5" text-anchor="middle" font-weight="400">34</text><line x1="525.0" y1="68.0" x2="525.0" y2="362.0" stroke="rgba(255,255,255,.14)" stroke-width="1"/><text x="525.0" y="376.0" fill="#a5a39b" font-size="10.5" text-anchor="middle" font-weight="400">67</text><line x1="712.5" y1="68.0" x2="712.5" y2="362.0" stroke="rgba(255,255,255,.14)" stroke-width="1"/><text x="712.5" y="376.0" fill="#a5a39b" font-size="10.5" text-anchor="middle" font-weight="400">101</text><line x1="900.0" y1="68.0" x2="900.0" y2="362.0" stroke="rgba(255,255,255,.14)" stroke-width="1"/><text x="900.0" y="376.0" fill="#a5a39b" font-size="10.5" text-anchor="middle" font-weight="400">135</text><text x="138.0" y="101.0" fill="#f2f1ec" font-size="13" text-anchor="end" font-weight="600">crunch</text><rect x="267.1" y="88.0" width="40.5" height="18" rx="4" fill="#3987e5" fill-opacity="0.28" stroke="#3987e5" stroke-width="1.5"/><circle cx="267.1" cy="97.0" r="4" fill="#a5a39b"/><circle cx="307.6" cy="97.0" r="4" fill="#3987e5"/><text x="317.6" y="101.0" fill="#a5a39b" font-size="10.5" text-anchor="start" font-weight="400">win 7 · 10^12 plans · load 0.95 · TRIAGE</text><text x="138.0" y="147.0" fill="#f2f1ec" font-size="13" text-anchor="end" font-weight="600">selfbuild</text><rect x="267.1" y="134.0" width="40.5" height="18" rx="4" fill="#3987e5" fill-opacity="0.28" stroke="#3987e5" stroke-width="1.5"/><circle cx="267.1" cy="143.0" r="4" fill="#a5a39b"/><circle cx="307.6" cy="143.0" r="4" fill="#3987e5"/><text x="317.6" y="147.0" fill="#a5a39b" font-size="10.5" text-anchor="start" font-weight="400">win 7 · 10^12 plans · load 0.95 · TRIAGE</text><text x="138.0" y="193.0" fill="#f2f1ec" font-size="13" text-anchor="end" font-weight="600">mobile</text><rect x="232.5" y="180.0" width="54.9" height="18" rx="4" fill="#3987e5" fill-opacity="0.28" stroke="#3987e5" stroke-width="1.5"/><circle cx="232.5" cy="189.0" r="4" fill="#a5a39b"/><circle cx="287.5" cy="189.0" r="4" fill="#3987e5"/><text x="297.5" y="193.0" fill="#a5a39b" font-size="10.5" text-anchor="start" font-weight="400">win 10 · 10^8 plans · load 0.46 · TRIAGE</text><text x="138.0" y="239.0" fill="#f2f1ec" font-size="13" text-anchor="end" font-weight="600">spread</text><rect x="323.2" y="226.0" width="79.4" height="18" rx="4" fill="#3987e5" fill-opacity="0.28" stroke="#3987e5" stroke-width="1.5"/><circle cx="323.2" cy="235.0" r="4" fill="#a5a39b"/><circle cx="402.7" cy="235.0" r="4" fill="#3987e5"/><text x="412.7" y="239.0" fill="#a5a39b" font-size="10.5" text-anchor="start" font-weight="400">win 14 · 10^14 plans · load 1.00</text><text x="138.0" y="285.0" fill="#f2f1ec" font-size="13" text-anchor="end" font-weight="600">megaweek</text><rect x="714.6" y="272.0" width="170.6" height="18" rx="4" fill="#e34948" fill-opacity="0.28" stroke="#e34948" stroke-width="1.5"/><circle cx="714.6" cy="281.0" r="4" fill="#a5a39b"/><circle cx="885.3" cy="281.0" r="4" fill="#e34948"/><text x="895.3" y="285.0" fill="#a5a39b" font-size="10.5" text-anchor="start" font-weight="400">win 31 · 10^56 plans · load 2.00 · TRIAGE</text><text x="138.0" y="331.0" fill="#f2f1ec" font-size="13" text-anchor="end" font-weight="600">bigweek</text><rect x="392.5" y="318.0" width="179.5" height="18" rx="4" fill="#3987e5" fill-opacity="0.28" stroke="#3987e5" stroke-width="1.5"/><circle cx="392.5" cy="327.0" r="4" fill="#a5a39b"/><circle cx="572.0" cy="327.0" r="4" fill="#3987e5"/><text x="582.0" y="331.0" fill="#a5a39b" font-size="10.5" text-anchor="start" font-weight="400">win 32 · 10^27 plans · load 1.09</text></svg>